<?xml version="1.0" encoding="utf-8"?>
<svg viewBox="0 0 277 300" width="277" height="300" xmlns="http://www.w3.org/2000/svg">
  <defs>
    <style type="text/css" id="style1053">
	.st0{fill:#043BEA;}
</style>
  </defs>
  <g transform="matrix(1.434295, 0, 0, 1.434295, -47.082222, -96.119965)" id="layer1" style="">
    <ellipse ry="90.662651" rx="92.928627" style="opacity:1;fill:#ffffff;fill-opacity:1;fill-rule:nonzero;stroke:none;stroke-width:13.73553276;stroke-miterlimit:4;stroke-dasharray:none;stroke-opacity:1;paint-order:normal" id="circle1199" cx="130.53835" cy="169.52222"/>
    <ellipse ry="90.662651" rx="92.928627" cy="167.49985" cx="130.53835" id="path1185" style="opacity:1;fill:#000000;fill-opacity:1;fill-rule:nonzero;stroke:#ffffff;stroke-width:6.84095478;stroke-miterlimit:4;stroke-dasharray:none;stroke-opacity:1;paint-order:normal"/>
    <g transform="matrix(2.4170273,0,0,2.5557268,70.439041,106.28282)" id="g1265" style="clip-rule:evenodd;fill:#ffffff;fill-opacity:1;fill-rule:evenodd;stroke-linejoin:round;stroke-miterlimit:2">
      <g style="fill:#ffffff;fill-opacity:1" transform="matrix(0.721351,0,0,0.811444,6.54562,5.10326)" id="g1229">
        <path style="fill:#ffffff;fill-opacity:1" d="m 27.411,7.92 c 0,-0.84 -0.766,-1.521 -1.711,-1.521 0,0 -10e-4,0 -0.002,0 -0.944,0 -1.71,0.681 -1.71,1.521 0,6.129 0,28.987 0,35.117 0,0.84 0.766,1.521 1.71,1.521 0.001,0 0.002,0 0.002,0 0.945,0 1.711,-0.681 1.711,-1.521 0,-6.13 0,-28.988 0,-35.117 z" id="path1227"/>
      </g>
      <g style="fill:#ffffff;fill-opacity:1" transform="matrix(5.99295e-4,-0.721351,0.258566,2.14816e-4,18.4279,54.7844)" id="g1233">
        <path style="fill:#ffffff;fill-opacity:1" d="m 27.411,11.171 c 0,-2.635 -0.766,-4.772 -1.711,-4.772 0,0 -10e-4,0 -0.002,0 -0.944,0 -1.71,2.137 -1.71,4.772 0,7.331 0,21.283 0,28.614 0,2.636 0.766,4.773 1.71,4.773 0.001,0 0.002,0 0.002,0 0.945,0 1.711,-2.137 1.711,-4.773 0,-7.331 0,-21.283 0,-28.614 z" id="path1231"/>
      </g>
      <g style="fill:#ffffff;fill-opacity:1" transform="matrix(5.99295e-4,-0.721351,0.579332,4.81307e-4,10.2753,38.6396)" id="g1237">
        <path style="fill:#ffffff;fill-opacity:1" d="m 27.411,8.529 c 0,-1.177 -0.766,-2.13 -1.711,-2.13 0,0 -10e-4,0 -0.002,0 -0.944,0 -1.71,0.953 -1.71,2.13 0,6.687 0,27.212 0,33.899 0,1.176 0.766,2.13 1.71,2.13 0.001,0 0.002,0 0.002,0 0.945,0 1.711,-0.954 1.711,-2.13 0,-6.687 0,-27.212 0,-33.899 z" id="path1235"/>
      </g>
      <g style="fill:#ffffff;fill-opacity:1" transform="matrix(0.509521,-0.510622,0.393855,0.393005,1.94156,23.2426)" id="g1241">
        <path style="fill:#ffffff;fill-opacity:1" d="m 27.411,8.617 c 0,-1.225 -0.766,-2.218 -1.711,-2.218 0,0 -10e-4,0 -0.002,0 -0.944,0 -1.71,0.993 -1.71,2.218 0,6.747 0,26.976 0,33.723 0,1.225 0.766,2.218 1.71,2.218 0.001,0 0.002,0 0.002,0 0.945,0 1.711,-0.993 1.711,-2.218 0,-6.747 0,-26.976 0,-33.723 z" id="path1239"/>
      </g>
      <g style="fill:#ffffff;fill-opacity:1" transform="matrix(-0.51096,-0.509182,0.392744,-0.394115,28.1955,43.2602)" id="g1245">
        <path style="fill:#ffffff;fill-opacity:1" d="m 27.411,8.617 c 0,-1.225 -0.766,-2.218 -1.711,-2.218 0,0 -10e-4,0 -0.002,0 -0.944,0 -1.71,0.993 -1.71,2.218 0,6.747 0,26.976 0,33.723 0,1.225 0.766,2.218 1.71,2.218 0.001,0 0.002,0 0.002,0 0.945,0 1.711,-0.993 1.711,-2.218 0,-6.747 0,-26.976 0,-33.723 z" id="path1243"/>
      </g>
    </g>
    <ellipse ry="79.882423" rx="81.878975" cy="168.1187" cx="130.57381" id="path1267" style="opacity:1;fill:none;fill-opacity:1;fill-rule:nonzero;stroke:#f0827d;stroke-width:3.92990994;stroke-miterlimit:4;stroke-dasharray:none;stroke-opacity:1;paint-order:normal"/>
  </g>
</svg>