<svg width="500" height="500" xmlns="http://www.w3.org/2000/svg" fill="none">
 <defs>
  <clipPath id="clip0_965_941">
   <rect id="svg_1" fill="white" height="500" width="500"/>
  </clipPath>
  <clipPath id="clip1_965_941">
   <rect id="svg_2" x="299.60001" y="299.60001" fill="white" height="200" width="200"/>
  </clipPath>
  <radialGradient gradientTransform="matrix(64.99710083007812,0,0,66.11009979248047,480.412109375,324.22039794921875)" gradientUnits="userSpaceOnUse" r="1" cy="0" cx="0" id="svg_25">
   <stop stop-opacity="0.6" stop-color="#FFEAFF"/>
   <stop stop-color="#A087C9" offset="0.6807"/>
   <stop stop-color="#10002F" offset="1"/>
  </radialGradient>
  <radialGradient gradientTransform="matrix(182.0330047607422,0,0,196.91600036621094,463.39312744140625,394.7428894042969)" gradientUnits="userSpaceOnUse" r="1" cy="0" cx="0" id="svg_24">
   <stop stop-opacity="0.6" stop-color="#FFEAFF"/>
   <stop stop-color="#A087C9" offset="0.6807"/>
   <stop stop-color="#10002F" offset="1"/>
  </radialGradient>
  <linearGradient gradientTransform="matrix(1,0,0,1,295.9991149902344,297)" gradientUnits="userSpaceOnUse" y2="30.9222" x2="108.26" y1="193.94" x1="81.3838" id="svg_23">
   <stop stop-color="#81FFFF"/>
   <stop stop-opacity="0" stop-color="white" offset="0.6202"/>
  </linearGradient>
  <linearGradient gradientTransform="matrix(1,0,0,1,295.9991149902344,297)" gradientUnits="userSpaceOnUse" y2="117.851" x2="83.4495" y1="56.2714" x1="151.713" id="svg_22">
   <stop stop-color="white" offset="0.2888"/>
   <stop stop-opacity="0" stop-color="white" offset="0.7796"/>
  </linearGradient>
  <linearGradient gradientTransform="matrix(1,0,0,1,295.9991149902344,297)" gradientUnits="userSpaceOnUse" y2="150.914" x2="171.607" y1="150.914" x1="17.1221" id="svg_21">
   <stop stop-color="#0002E9"/>
   <stop stop-color="#FF00C7" offset="0.9952"/>
  </linearGradient>
  <linearGradient gradientTransform="matrix(1,0,0,1,295.9991149902344,297)" gradientUnits="userSpaceOnUse" y2="197.959" x2="93.4867" y1="118.581" x1="178.918" id="svg_20">
   <stop stop-color="white" offset="0.2888"/>
   <stop stop-opacity="0" stop-color="white" offset="0.7796"/>
  </linearGradient>
  <linearGradient gradientTransform="matrix(1,0,0,1,295.9991149902344,297)" gradientUnits="userSpaceOnUse" y2="150.914" x2="99.7705" y1="150.914" x1="17.1221" id="svg_19">
   <stop stop-color="#000292"/>
   <stop stop-color="#7D00C7" offset="0.9952"/>
  </linearGradient>
  <linearGradient gradientTransform="matrix(1,0,0,1,295.9991149902344,297)" gradientUnits="userSpaceOnUse" y2="118.947" x2="171.503" y1="118.947" x1="17.2258" id="svg_18">
   <stop stop-color="#000292"/>
   <stop stop-color="#BE00C7" offset="0.9952"/>
  </linearGradient>
  <linearGradient gradientTransform="matrix(1,0,0,1,295.9991149902344,297)" gradientUnits="userSpaceOnUse" y2="52.9581" x2="157.609" y1="34.8036" x1="168.973" id="svg_17">
   <stop stop-color="white" offset="0.2888"/>
   <stop stop-opacity="0" stop-color="white" offset="0.7796"/>
  </linearGradient>
  <linearGradient gradientTransform="matrix(1,0,0,1,295.9991149902344,297)" gradientUnits="userSpaceOnUse" y2="170.121" x2="91.0803" y1="170.121" x1="84.9275" id="svg_16">
   <stop stop-color="white" offset="0.2888"/>
   <stop stop-opacity="0" stop-color="white" offset="0.7796"/>
  </linearGradient>
  <linearGradient gradientTransform="matrix(1,0,0,1,295.9991149902344,297)" gradientUnits="userSpaceOnUse" y2="168.028" x2="112.307" y1="168.028" x1="106.155" id="svg_15">
   <stop stop-color="white" offset="0.2888"/>
   <stop stop-opacity="0" stop-color="white" offset="0.7796"/>
  </linearGradient>
  <linearGradient gradientTransform="matrix(1,0,0,1,295.9991149902344,297)" gradientUnits="userSpaceOnUse" y2="178.604" x2="101.282" y1="178.604" x1="96.6623" id="svg_14">
   <stop stop-color="white" offset="0.2888"/>
   <stop stop-opacity="0" stop-color="white" offset="0.7796"/>
  </linearGradient>
  <linearGradient gradientTransform="matrix(1,0,0,1,295.9991149902344,297)" gradientUnits="userSpaceOnUse" y2="176.371" x2="120.049" y1="176.371" x1="115.43" id="svg_13">
   <stop stop-color="white" offset="0.2888"/>
   <stop stop-opacity="0" stop-color="white" offset="0.7796"/>
  </linearGradient>
  <linearGradient gradientTransform="matrix(1,0,0,1,295.9991149902344,297)" gradientUnits="userSpaceOnUse" y2="165.988" x2="75.1024" y1="165.988" x1="65.0544" id="svg_12">
   <stop stop-color="white" offset="0.2888"/>
   <stop stop-opacity="0" stop-color="white" offset="0.7796"/>
  </linearGradient>
  <linearGradient gradientTransform="matrix(1,0,0,1,295.9991149902344,297)" gradientUnits="userSpaceOnUse" y2="149.279" x2="134.775" y1="149.279" x1="124.728" id="svg_11">
   <stop stop-color="white" offset="0.2888"/>
   <stop stop-opacity="0" stop-color="white" offset="0.7796"/>
  </linearGradient>
 </defs>
 <g>
  <title>Layer 1</title>
  <g id="svg_3" clip-path="url(#clip0_965_941)">
   <circle id="svg_4" fill="white" r="245" cy="250" cx="249"/>
   <path id="svg_5" fill="#5A5564" d="m406.697,104.934l-13.728,13.728c32.758,35.825 50.925,82.611 50.925,131.155c0,48.544 -18.167,95.331 -50.925,131.155l13.728,13.729c36.432,-39.517 56.658,-91.296 56.658,-145.044c0,-53.748 -20.226,-105.527 -56.658,-145.044l0,0.321z"/>
   <path id="svg_6" fill="#5A5564" d="m117.982,106.123c35.824,-32.7591 82.611,-50.9257 131.155,-50.9257c48.544,0 95.331,18.1666 131.155,50.9257l13.729,-13.7288c-39.517,-36.4315 -91.296,-56.6579 -145.044,-56.6579c-53.748,0 -105.527,20.2264 -145.044,56.6579l14.049,13.7288z"/>
   <path id="svg_7" fill="#5A5564" d="m105.123,381.11c-32.7202,-35.817 -50.8628,-82.575 -50.8628,-131.087c0,-48.512 18.1426,-95.27 50.8628,-131.086l-13.7287,-13.729c-36.4315,39.517 -56.6578,91.296 -56.6578,145.044c0,53.748 20.2263,105.527 56.6578,145.044l13.7287,-14.186z"/>
   <path id="svg_8" fill="#5A5564" d="m380.109,393.785c-35.824,32.759 -82.611,50.926 -131.155,50.926c-48.544,0 -95.331,-18.167 -131.155,-50.926l-13.729,13.729c39.517,36.431 91.297,56.658 145.044,56.658c53.748,0 105.528,-20.227 145.044,-56.658l-14.049,-13.729z"/>
   <path id="svg_9" fill="#F09242" d="m335.674,204.192c-2.746,-28.647 -27.457,-38.257 -58.713,-41.186l0,-39.447l-24.163,0l0,38.715c-6.361,0 -12.859,0 -19.311,0l0,-38.715l-23.98,0l0,39.721l-49.012,0l0,25.856c0,0 17.848,-0.32 17.573,0c3.218,-0.354 6.448,0.555 9.009,2.536c2.561,1.98 4.253,4.877 4.72,8.081l0,108.731c-0.069,1.13 -0.363,2.235 -0.866,3.249c-0.504,1.014 -1.205,1.917 -2.063,2.655c-0.842,0.752 -1.827,1.326 -2.897,1.688c-1.069,0.362 -2.201,0.504 -3.327,0.417c0.321,0.274 -17.572,0 -17.572,0l-4.577,28.876l48.554,0l0,40.362l24.163,0l0,-39.767l19.312,0l0,39.584l24.208,0l0,-39.904c40.82,-2.472 69.284,-12.539 72.854,-50.751c2.883,-30.752 -11.578,-44.481 -34.688,-50.018c14.049,-6.91 22.744,-19.724 20.776,-40.683zm-33.864,85.942c0,30.02 -51.437,26.588 -67.82,26.588l0,-53.268c16.383,0.046 67.82,-4.668 67.82,26.68zm-11.212,-75.051c0,27.458 -42.925,24.117 -56.562,24.117l0,-48.416c13.637,0 56.562,-4.302 56.562,24.299z"/>
   <path id="svg_10" fill="#282138" d="m248.954,500c-49.441,-0.009 -97.77,-14.678 -138.875,-42.152c-41.1053,-27.473 -73.1413,-66.519 -92.0575,-112.198c-18.91626,-45.68 -23.86324,-95.943 -14.21547,-144.434c9.64777,-48.491 33.45697,-93.032 68.41737,-127.9926c34.9606,-34.9604 79.5016,-58.7696 127.9926,-68.41737c48.491,-9.64777 98.754,-4.70079 144.434,14.21547c45.679,18.9162 84.725,50.9522 112.198,92.0575c27.474,41.105 42.143,89.434 42.152,138.875c0.006,32.838 -6.457,65.356 -19.021,95.696c-12.564,30.339 -30.982,57.907 -54.202,81.127c-23.22,23.22 -50.788,41.638 -81.127,54.202c-30.34,12.564 -62.858,19.027 -95.696,19.021zm0,-480.5051c-45.55,0.0362 -90.068,13.5755 -127.926,38.9066c-37.8575,25.3311 -67.3559,61.3165 -84.7666,103.4085c-17.4106,42.093 -21.9519,88.401 -13.0498,133.074c8.902,44.672 30.8478,85.703 63.0634,117.906c32.216,32.203 73.255,54.132 117.931,63.016c44.676,8.885 90.983,4.325 133.068,-13.102c42.085,-17.428 78.059,-46.94 103.376,-84.808c25.316,-37.868 38.837,-82.391 38.855,-127.942c0.012,-30.275 -5.943,-60.256 -17.527,-88.228c-11.583,-27.972 -28.566,-53.387 -49.978,-74.7903c-21.412,-21.4038 -46.827,-38.3955 -74.799,-49.9781c-27.971,-11.5826 -57.952,-17.539 -88.227,-17.5513l-0.02,0.0886z"/>
  </g>
  <g>
   <path fill="#5E12A0" d="m487.13511,332.3519c-2.036,-7.8395 -8.58,-15.6791 -20.359,-24.4061c-9.454,-6.95209 -19.488,-10.9458 -27.486,-10.9458c-1.6,0 -3.054,0.14791 -4.508,0.44374c-3.636,0.73956 -6.836,3.40207 -8.871,7.3958c-2.472,4.73326 -3.054,11.09376 -1.454,14.93946c0.581,1.1833 1.308,2.6625 2.181,3.9937c-7.708,4.7334 -12.071,6.0646 -12.653,6.2125c20.07,6.8041 36.794,21.004 47.264,39.4936l0.146,-1.775c0.436,-4.8813 1.89,-10.5021 3.927,-16.2708c2.035,0.5917 4.071,0.8875 6.107,0.8875c5.381,0 10.034,-2.2187 12.943,-6.2124c2.909,-3.9938 4.071,-9.3188 2.763,-13.7562z"/>
   <path fill="url(#svg_25)" d="m466.19611,347.1475c13.233,3.6979 18.614,-6.6562 16.868,-13.6082c-1.89,-6.9521 -7.998,-14.0521 -18.76,-22.0395c-10.761,-7.98745 -21.667,-11.24162 -28.648,-9.76252c-6.98,1.47919 -9.016,12.27702 -7.272,16.41862c0.728,1.6271 2.327,3.9938 4.509,6.6563c-2.763,1.9229 -5.381,3.402 -7.562,4.7332c13.379,6.0646 25.013,15.5313 33.738,27.3645c1.018,-3.9937 2.473,-7.5437 3.782,-10.6499c1.017,0.1479 2.181,0.4438 3.345,0.8875z"/>
   <path fill="url(#svg_24)" d="m390.42291,492.112c44.8962,0 81.2932,-37.02 81.2932,-82.685c0,-45.6655 -36.397,-82.6848 -81.2932,-82.6848c-44.8968,0 -81.2929,37.0193 -81.2929,82.6848c0,45.665 36.3961,82.685 81.2929,82.685z"/>
   <path fill="#A98698" d="m476.37611,326.7307c-11.053,-11.8332 -20.36,-14.9395 -31.558,-17.454c-8.725,-2.0709 -6.399,-7.10004 4.218,-6.06461c-5.09,-1.77498 -9.889,-2.21875 -13.38,-1.4792c-6.98,1.4792 -9.016,12.27701 -7.271,16.41871c0.727,1.627 2.327,3.9937 4.509,6.6562c-3.927,2.6625 -7.272,4.5854 -10.036,6.0646c1.31,0.5916 2.909,1.3312 4.799,2.3666c4.945,2.6625 10.326,7.0999 10.326,7.0999c-8.144,-7.0999 -6.399,-10.3541 4.799,-18.3415c3.491,-2.5145 9.889,-2.2188 15.852,0.8875c5.962,3.1062 12.942,10.9458 12.942,10.9458l-6.689,13.0166c0.436,0.1479 0.872,0.2957 1.309,0.4437c4.217,1.1833 7.561,0.8875 10.18,-0.1479c3.054,-1.9229 11.052,-8.4312 0,-20.4124z" opacity="0.6"/>
   <path fill="#5E12A0" d="m444.67211,316.3852c2.909,1.1833 6.69,3.2541 11.344,6.3604c5.526,3.6979 10.325,7.8396 13.379,11.0936c-5.09,6.8042 -8.435,16.1229 -10.47,22.6312c1.018,1.4792 2.181,2.9583 3.199,4.4375c1.018,-3.6979 2.762,-9.1708 5.089,-14.6437c0.582,0.1479 1.31,0.1479 2.036,0.1479c1.745,0 3.781,-0.2958 5.381,-1.6271c1.163,-0.8875 2.473,-2.5145 2.327,-5.4728c0,-2.8104 -2.181,-6.3604 -6.69,-10.65c-3.199,-3.1062 -7.561,-6.5083 -11.924,-9.6145c-12.507,-8.4312 -21.233,-10.7979 -25.159,-6.8042c-2.618,2.6626 -2.327,5.9167 -1.455,8.2834c-4.653,3.1062 -8.58,5.3249 -11.197,6.8041c1.745,0.5917 3.345,1.3312 5.09,2.0708c4.653,-2.5146 11.343,-6.8042 19.05,-13.0166zm27.486,21.152c0.436,0.7395 0.582,1.4791 0.582,1.9228c0,1.3314 -0.436,1.775 -0.728,2.0709c-0.581,0.4438 -1.745,0.7396 -2.763,0.7396c0.873,-1.775 1.891,-3.2542 2.909,-4.7333zm-35.92,-22.0395c0.436,-0.4438 1.6,-0.7396 3.49,-0.4438c-1.454,1.1834 -2.908,2.2188 -4.362,3.2542c-0.146,-1.0354 0,-2.0708 0.872,-2.8104z"/>
   <path fill="#5E12A0" d="m390.42321,321.8672c-47.5543,0 -86.09207,39.1977 -86.09207,87.5668c0,48.367 38.53777,87.566 86.09207,87.566c47.5539,0 86.0919,-39.199 86.0919,-87.566c0,-48.3691 -38.683,-87.5668 -86.0919,-87.5668zm0,170.2508c-44.9366,0 -81.293,-36.978 -81.293,-82.684c0,-45.7066 36.3564,-82.6856 81.293,-82.6856c44.9359,0 81.2939,36.979 81.2939,82.6856c0,45.706 -36.502,82.684 -81.2939,82.684z"/>
   <path fill="url(#svg_23)" d="m390.42291,492.112c44.8962,0 81.2932,-37.02 81.2932,-82.685c0,-45.6655 -36.397,-82.6848 -81.2932,-82.6848c-44.8968,0 -81.2929,37.0193 -81.2929,82.6848c0,45.665 36.3961,82.685 81.2929,82.685z" opacity="0.6"/>
   <path fill="#A98698" d="m389.84991,482.062c-44.3549,-7.248 -74.458,-49.7 -67.1868,-94.8137c3.1995,-19.9688 13.0884,-36.9792 27.0493,-49.2561c-20.3596,11.9812 -35.4839,32.8373 -39.5558,58.279c-7.1259,45.1138 22.9772,87.5658 67.1866,94.8138c24.7219,4.142 48.5719,-3.698 66.1689,-19.081c-15.561,9.171 -34.466,13.165 -53.6622,10.058z" opacity="0.6"/>
   <path fill="url(#svg_22)" d="m403.36411,327.9237c-20.5048,-3.4021 -40.4282,1.3312 -56.7159,11.8333c-0.2909,0.2957 -0.5817,0.5916 -0.5817,0.5916c6.2533,-3.8458 15.4151,-7.2479 15.4151,-7.2479c-23.5589,13.9041 -30.8302,29.7311 -30.8302,29.7311c9.1619,-18.0458 36.0656,-30.7665 57.1523,-31.654c21.0864,-0.8875 34.9014,5.4729 51.7714,19.229c16.869,13.9042 27.049,42.3036 26.031,64.7872c-0.872,22.484 -12.506,40.677 -12.506,40.677c7.998,-10.503 12.797,-18.193 15.851,-26.034c0.582,-2.366 1.164,-4.732 1.454,-7.247c7.272,-44.9667 -22.686,-87.4185 -67.041,-94.6663z" opacity="0.6"/>
   <path fill="url(#svg_21)" d="m467.64311,408.689c0,43.339 -34.612,78.544 -77.2209,78.544c-42.6097,0 -77.3665,-35.205 -77.3665,-78.544l154.5874,0z"/>
   <g opacity="0.6">
    <path fill="url(#svg_20)" d="m461.53311,408.689c0,42.304 -32.866,76.916 -74.1668,78.544c1.018,0 2.036,0 3.054,0c42.6098,0 77.2218,-35.205 77.2218,-78.544l-6.109,0z" opacity="0.6"/>
   </g>
   <g opacity="0.7">
    <path fill="url(#svg_19)" d="m323.96271,408.689l-10.907,0c0,43.339 34.6114,78.544 77.2211,78.544c1.8905,0 3.6356,0 5.3808,-0.149c-39.9921,-2.958 -71.6949,-36.978 -71.6949,-78.395z" opacity="0.7"/>
   </g>
   <path fill="url(#svg_18)" d="m467.49811,409.422c0,-9.023 -15.415,-14.2009 -35.921,-15.975c-14.833,-1.1837 -29.811,0.2952 -46.9719,5.62c-14.8335,4.438 -28.2126,3.698 -37.9561,2.514c-21.6685,-2.514 -33.5934,-2.81 -33.5934,7.841c0,15.383 30.8302,34.612 77.0757,27.955c23.4137,-3.401 35.4837,-10.353 49.2997,-15.087c14.979,-5.029 28.067,-4.881 28.067,-12.868z"/>
   <path fill="white" d="m415.72611,372.1522c7.229,0 13.088,-5.9602 13.088,-13.3125c0,-7.3522 -5.859,-13.3124 -13.088,-13.3124c-7.228,0 -13.088,5.9602 -13.088,13.3124c0,7.3523 5.86,13.3125 13.088,13.3125z"/>
   <path fill="white" d="m437.10711,382.0619c3.052,0 5.526,-2.5165 5.526,-5.6208c0,-3.1043 -2.474,-5.6208 -5.526,-5.6208c-3.052,0 -5.526,2.5165 -5.526,5.6208c0,3.1043 2.474,5.6208 5.526,5.6208z"/>
   <g opacity="0.6">
    <path fill="url(#svg_17)" d="m456.88311,348.203c-0.146,0 -0.291,0 -0.291,0c-0.873,-0.1479 -1.454,-1.0354 -1.309,-2.0708c1.309,-6.8042 6.835,-13.3124 7.126,-13.6083c0.581,-0.7395 1.745,-0.7395 2.327,-0.1479c0.727,0.5917 0.727,1.775 0.145,2.3667c-0.145,0.1479 -5.235,6.2124 -6.398,12.1291c-0.146,0.8875 -0.873,1.3312 -1.6,1.3312z" opacity="0.6"/>
   </g>
   <path fill="white" d="m385.05941,471.098c2.2488,0 4.0719,-1.854 4.0719,-4.142c0,-2.287 -1.8231,-4.142 -4.0719,-4.142c-2.2489,0 -4.072,1.855 -4.072,4.142c0,2.288 1.8231,4.142 4.072,4.142z" opacity="0.2"/>
   <g opacity="0.4">
    <path fill="url(#svg_16)" d="m382.71221,469.657c-1.5997,-1.627 -1.5997,-4.289 0,-5.917c0.2908,-0.296 0.5817,-0.444 0.8725,-0.74c-0.5817,0.149 -1.018,0.444 -1.4542,0.888c-1.5997,1.627 -1.5997,4.29 0,5.917c1.3088,1.331 3.3447,1.627 4.9444,0.74c-1.4543,0.591 -3.1993,0.296 -4.3627,-0.888z" opacity="0.6"/>
   </g>
   <path fill="white" d="m386.49081,465.779c0.4819,0 0.8726,-0.397 0.8726,-0.887c0,-0.491 -0.3907,-0.888 -0.8726,-0.888c-0.4819,0 -0.8726,0.397 -0.8726,0.888c0,0.49 0.3907,0.887 0.8726,0.887z" opacity="0.3"/>
   <path fill="white" d="m406.30111,469.035c2.249,0 4.072,-1.855 4.072,-4.143c0,-2.288 -1.823,-4.142 -4.072,-4.142c-2.249,0 -4.072,1.854 -4.072,4.142c0,2.288 1.823,4.143 4.072,4.143z" opacity="0.2"/>
   <g opacity="0.4">
    <path fill="url(#svg_15)" d="m403.95411,467.593c-1.6,-1.628 -1.6,-4.291 0,-5.918c0.29,-0.296 0.582,-0.444 0.872,-0.739c-0.582,0.147 -1.018,0.443 -1.454,0.887c-1.599,1.627 -1.599,4.29 0,5.917c1.31,1.332 3.345,1.627 4.945,0.739c-1.454,0.593 -3.199,0.297 -4.363,-0.886z" opacity="0.6"/>
   </g>
   <path fill="white" d="m407.73311,463.714c0.482,0 0.872,-0.397 0.872,-0.888c0,-0.489 -0.39,-0.887 -0.872,-0.887c-0.482,0 -0.873,0.398 -0.873,0.887c0,0.491 0.391,0.888 0.873,0.888z" opacity="0.3"/>
   <path fill="white" d="m395.79711,478.662c1.687,0 3.054,-1.391 3.054,-3.106c0,-1.716 -1.367,-3.107 -3.054,-3.107c-1.6866,0 -3.0539,1.391 -3.0539,3.107c0,1.715 1.3673,3.106 3.0539,3.106z" opacity="0.2"/>
   <g opacity="0.4">
    <path fill="url(#svg_14)" d="m394.05201,477.497c-1.1633,-1.184 -1.1633,-3.254 0,-4.438c0.1455,-0.148 0.4363,-0.295 0.5817,-0.444c-0.4362,0.149 -0.7271,0.444 -1.018,0.74c-1.1633,1.183 -1.1633,3.255 0,4.438c1.018,1.036 2.4724,1.183 3.7814,0.444c-1.164,0.444 -2.4725,0.148 -3.3451,-0.74z" opacity="0.6"/>
   </g>
   <path fill="white" d="m396.82111,474.508c0.321,0 0.581,-0.265 0.581,-0.591c0,-0.327 -0.26,-0.593 -0.581,-0.593c-0.321,0 -0.582,0.266 -0.582,0.593c0,0.326 0.261,0.591 0.582,0.591z" opacity="0.3"/>
   <path fill="white" d="m414.56411,476.429c1.687,0 3.054,-1.39 3.054,-3.106c0,-1.716 -1.367,-3.106 -3.054,-3.106c-1.686,0 -3.053,1.39 -3.053,3.106c0,1.716 1.367,3.106 3.053,3.106z" opacity="0.2"/>
   <g opacity="0.4">
    <path fill="url(#svg_13)" d="m412.82011,475.265c-1.163,-1.184 -1.163,-3.255 0,-4.438c0.145,-0.148 0.436,-0.296 0.582,-0.444c-0.437,0.148 -0.728,0.444 -1.018,0.74c-1.164,1.183 -1.164,3.254 0,4.438c1.018,1.035 2.472,1.183 3.781,0.444c-1.163,0.444 -2.473,0.147 -3.345,-0.74z" opacity="0.6"/>
   </g>
   <path fill="white" d="m415.59111,472.293c0.322,0 0.582,-0.265 0.582,-0.592c0,-0.327 -0.26,-0.592 -0.582,-0.592c-0.321,0 -0.582,0.265 -0.582,0.592c0,0.327 0.261,0.592 0.582,0.592z" opacity="0.3"/>
   <path fill="white" d="m367.73561,469.634c3.6946,0 6.6895,-3.047 6.6895,-6.804c0,-3.758 -2.9949,-6.805 -6.6895,-6.805c-3.6946,0 -6.6896,3.047 -6.6896,6.805c0,3.757 2.995,6.804 6.6896,6.804z" opacity="0.2"/>
   <g opacity="0.4">
    <path fill="url(#svg_12)" d="m363.95611,467.104c-2.6178,-2.663 -2.6178,-6.953 0,-9.615c0.4362,-0.444 0.8725,-0.74 1.4541,-1.036c-0.8724,0.296 -1.5996,0.888 -2.3267,1.48c-2.6177,2.662 -2.6177,6.952 0,9.614c2.1813,2.219 5.5262,2.663 8.1438,1.035c-2.4722,1.036 -5.3808,0.592 -7.2712,-1.478z" opacity="0.6"/>
   </g>
   <path fill="white" d="m370.07061,460.749c0.8031,0 1.4542,-0.662 1.4542,-1.479c0,-0.817 -0.6511,-1.479 -1.4542,-1.479c-0.8033,0 -1.4543,0.662 -1.4543,1.479c0,0.817 0.651,1.479 1.4543,1.479z" opacity="0.3"/>
   <path fill="white" d="m427.53811,452.913c3.695,0 6.69,-3.046 6.69,-6.804c0,-3.758 -2.995,-6.804 -6.69,-6.804c-3.694,0 -6.689,3.046 -6.689,6.804c0,3.758 2.995,6.804 6.689,6.804z" opacity="0.2"/>
   <g opacity="0.4">
    <path fill="url(#svg_11)" d="m423.57311,450.4c-2.618,-2.662 -2.618,-6.951 0,-9.614c0.436,-0.444 0.873,-0.74 1.455,-1.036c-0.874,0.296 -1.6,0.888 -2.327,1.48c-2.618,2.662 -2.618,6.952 0,9.614c2.181,2.219 5.526,2.663 8.144,1.035c-2.473,1.036 -5.237,0.593 -7.272,-1.479z" opacity="0.6"/>
   </g>
   <path fill="white" d="m429.83611,444.049c0.804,0 1.454,-0.663 1.454,-1.48c0,-0.817 -0.65,-1.479 -1.454,-1.479c-0.803,0 -1.454,0.662 -1.454,1.479c0,0.817 0.651,1.48 1.454,1.48z" opacity="0.3"/>

  </g>
 </g>
</svg>